<svg width="745" height="295" viewBox="0 0 745 295" fill="none" xmlns="http://www.w3.org/2000/svg">
<g clip-path="url(#clip0_1_54)">
<path d="M406.842 292.48C398.713 280.636 392.149 268.27 385.466 256.003C382.482 250.525 379.215 247.516 372.674 248.367C368.413 248.921 364.012 248.657 359.692 248.421C355.967 248.217 354.744 249.645 354.802 253.333C354.982 264.661 354.727 275.998 354.95 287.325C355.032 291.449 353.766 292.947 349.537 292.697C343.725 292.355 337.847 292.24 332.054 292.718C327.101 293.126 326.23 291.061 326.267 286.717C326.434 267.389 326.328 248.057 326.317 228.727C326.304 207.231 326.402 185.733 326.182 164.238C326.134 159.541 327.43 157.805 332.344 157.874C351.171 158.135 370.004 157.944 388.833 158.082C397.392 158.145 405.76 159.499 413.526 163.384C427.86 170.554 434.741 182.663 435.872 198.2C437.365 218.696 429.397 234.488 411.112 245.13C420.476 260.605 429.744 275.921 439.706 292.385C428.128 293.705 417.661 293.194 406.842 292.48ZM390.209 224.361C402.828 221.855 408.138 214.693 407.424 201.14C406.851 190.254 400.326 184.185 388.19 183.077C378.557 182.198 368.904 182.789 359.266 182.488C356.125 182.39 354.73 183.488 354.762 186.782C354.872 198.093 354.862 209.406 354.777 220.717C354.754 223.727 355.965 224.865 358.933 224.817C369.075 224.653 379.218 224.624 390.209 224.361Z" fill="white"/>
<path d="M75.465 260.092C90.0732 226.617 103.769 193.173 117.388 159.698C118.893 155.997 121.015 154.714 124.925 154.867C132.079 155.147 139.26 155.145 146.414 154.863C150.037 154.72 151.712 156.114 153.071 159.348C167.135 192.814 181.343 226.219 195.512 259.641C199.086 268.072 202.692 276.49 206.217 284.942C207.161 287.203 208.532 289.362 208.476 291.91C207.038 293.731 205.078 293.249 203.319 293.262C196.487 293.312 189.649 293.103 182.825 293.329C179.193 293.45 177.46 291.998 176.298 288.656C174.276 282.842 171.627 277.247 169.58 271.441C168.274 267.739 166.192 266.339 162.195 266.4C148.034 266.616 133.868 266.5 119.704 266.455C117.76 266.449 115.712 266.938 113.409 265.457C115.813 257.599 119.726 250.324 123.623 243.066C124.522 241.389 126.611 241.892 128.235 241.88C136.567 241.82 144.899 241.805 153.23 241.792C155.873 241.787 158.215 241.538 156.71 237.892C150.105 221.883 143.49 205.878 136.852 189.883C136.617 189.316 136.096 188.867 135.671 188.314C133.442 189.407 133.271 191.585 132.567 193.333C120.928 222.212 109.605 251.222 97.6474 279.968C91.0098 295.925 95.6352 293.019 77.8179 293.218C72.9057 293.273 67.9076 293.935 62.2162 292.537C66.0154 281.252 71.0528 270.996 75.465 260.092Z" fill="white"/>
<path d="M679.095 158.921C681.665 160.672 680.84 163.033 680.847 165.073C680.917 186.893 680.898 208.712 680.904 230.532C680.904 232.147 680.904 233.762 680.904 236.333C687.298 228.76 693.011 221.922 698.803 215.151C711.68 200.095 711.696 200.076 731.449 200.095C734.515 200.098 737.725 199.374 740.526 200.87C741.256 203.031 739.716 203.877 738.793 204.932C729.697 215.334 720.661 225.792 711.383 236.031C708.757 238.93 708.609 241.186 710.878 244.28C721.019 258.11 731.04 272.028 741.039 285.961C742.272 287.679 743.847 289.274 744.266 291.797C741.865 293.775 738.92 292.706 736.265 293.143C722.901 295.347 712.887 291.636 706.903 278.445C704.482 273.109 700.09 268.616 696.328 263.955C692.878 259.679 689.714 259.848 685.879 263.794C680.731 269.09 679.628 275.392 679.791 282.574C680.04 293.56 682.286 293.212 669.156 293.028C667.161 293 665.17 292.724 663.174 292.677C655.333 292.491 655.327 292.508 655.33 284.439C655.344 245.129 655.35 205.82 655.387 166.511C655.394 158.593 654.533 158.626 662.753 158.715C668.065 158.772 673.378 158.762 679.095 158.921Z" fill="white"/>
<path d="M531.118 217.952C533.724 224.439 534.525 230.899 534.574 237.4C534.699 253.728 534.495 270.059 534.619 286.387C534.653 290.83 533.202 292.834 528.52 292.426C524.715 292.095 520.845 292.126 517.032 292.394C512.439 292.718 509.998 291.195 510.454 286.271C510.529 285.465 510.321 284.633 510.248 283.857C508.599 283.193 507.979 284.496 507.294 285.244C495.894 297.681 471.21 296.306 460.147 289.439C450.247 283.292 446.724 273.954 447.575 262.956C448.458 251.541 454.32 242.968 465.261 239.089C479.501 234.04 493.985 234.631 508.37 239.073C511.166 230.509 506.405 222.524 497.33 220.567C487.004 218.342 477.145 220.566 467.368 223.58C460.187 225.794 460.201 225.84 457.981 218.542C457.933 218.383 457.862 218.23 457.82 218.069C454.499 205.614 451.526 206.942 466.039 201.76C478.893 197.171 492.209 195.472 505.847 197.831C517.795 199.899 526.186 206.44 531.118 217.952ZM509.418 259.975C509.046 256.595 508.783 252.897 504.334 252.605C496.702 252.104 489.004 251.587 481.477 253.448C475.157 255.01 472.607 258.703 472.904 265.072C473.164 270.642 476.61 274.769 482.307 275.777C489.605 277.068 496.545 276.042 502.922 271.953C507.03 269.319 510.623 266.499 509.418 259.975Z" fill="white"/>
<path d="M637.826 286.958C638.421 291.938 636.127 293.314 631.985 293.148C627.328 292.961 622.648 292.892 617.998 293.133C613.731 293.355 612.133 291.877 612.2 287.425C612.429 272.271 612.327 257.111 612.284 241.954C612.235 225.128 602.6 217.904 586.555 222.591C578.969 224.807 575.87 228.742 575.84 236.761C575.779 253.251 575.865 269.741 575.871 286.231C575.874 292.76 575.272 293.405 568.745 293.009C564.417 292.746 560.112 292.417 555.784 292.965C552.35 293.4 550.432 292.19 550.45 288.347C550.569 261.697 550.489 235.046 550.737 208.398C550.807 200.792 551.205 200.802 558.765 200.778C562.262 200.768 565.787 200.989 569.251 200.635C573.973 200.153 576.197 201.801 575.69 206.696C575.591 207.653 575.883 208.649 575.984 209.542C577.45 210.178 577.954 209.081 578.607 208.427C587.847 199.171 599.224 196.462 611.681 198.463C626.082 200.776 635.069 211.055 636.984 226.067C638.488 237.859 637.569 249.689 637.781 261.499C637.93 269.825 637.818 278.156 637.826 286.958Z" fill="white"/>
<path d="M250.909 277.172C250.908 281.333 250.79 284.999 250.943 288.654C251.066 291.601 249.85 293.021 246.931 293.029C240.773 293.047 234.616 293.077 228.458 293.078C225.813 293.078 224.47 291.762 224.523 289.068C224.547 287.904 224.475 286.738 224.475 285.574C224.482 244.962 224.489 204.351 224.507 163.739C224.51 157.141 224.534 157.137 231.175 157.119C236.002 157.107 240.837 157.28 245.653 157.048C249.61 156.858 250.902 158.511 250.872 162.329C250.759 176.642 250.862 190.956 250.872 205.27C250.889 229.071 250.896 252.872 250.909 277.172Z" fill="white"/>
<path d="M118.459 107.178C118.435 93.3543 118.406 80.0305 118.391 66.7066C118.385 60.319 118.398 60.3413 124.937 60.2114C125.984 60.1906 127.296 60.7465 128.321 58.676C118.652 58.7818 118.092 51.8187 117.632 45.0043C117.318 40.361 117.485 35.6858 117.411 31.0252C117.369 28.3396 118.709 27.0726 121.339 26.9566C125.827 26.7588 130.31 26.4475 134.798 26.3081C138.271 26.2002 139.984 27.8695 139.854 31.4945C139.734 34.8191 139.93 38.154 139.934 41.4844C139.941 47.546 141.315 54.0182 134.292 58.3243C139.456 58.4561 140.092 61.1161 140.066 64.9606C139.913 87.1105 139.877 109.263 140.058 131.412C140.095 135.916 138.805 137.862 134.135 137.479C130.495 137.18 126.806 137.281 123.15 137.441C119.648 137.594 118.435 136.007 118.473 132.66C118.566 124.334 118.477 116.006 118.459 107.178Z" fill="#51F72B"/>
<path d="M148.548 127.131C148.564 105.178 148.594 83.7167 148.577 62.2553C148.574 58.6139 148.671 55.2095 153.97 55.9877C150.076 49.0437 149.917 42.6073 153.364 39.7347C156.807 36.8652 163.561 37.3769 167.667 40.8184C170.899 43.5277 170.688 49.633 166.983 55.6667C169.966 56.6194 169.987 59.0556 169.983 61.6242C169.942 85.0821 169.868 108.54 170.014 131.997C170.039 136.08 168.799 137.82 164.629 137.493C161.653 137.26 158.643 137.469 155.649 137.449C148.571 137.403 148.571 137.395 148.539 130.118C148.535 129.286 148.544 128.454 148.548 127.131Z" fill="#51F72B"/>
<path d="M187.95 58.0662C192.659 58.3724 192.659 58.3724 192.412 62.9146C194.086 61.7607 194.869 59.1669 197.118 59.9601C199.432 60.7765 199.235 63.1992 199.558 65.0704C201.318 75.2642 200.816 78.6371 196.754 84.4258C199.799 85.2257 200.032 87.5406 200.017 90.1787C199.941 104.163 199.851 118.149 200.032 132.131C200.086 136.234 198.738 137.863 194.593 137.584C190.782 137.329 186.933 137.427 183.111 137.595C179.607 137.748 178.419 136.135 178.44 132.809C178.532 117.826 178.583 102.842 178.485 87.8596C178.458 83.7628 180.08 82.827 183.675 84.183C186.223 85.1437 188.875 85.0292 192.887 84.7806C183.759 80.7825 179.347 74.7476 180.598 65.737C181.13 61.9052 183.572 59.1487 187.95 58.0662Z" fill="#51F72B"/>
<path d="M52.6379 183.765C52.6281 188.19 52.4778 192.188 52.6588 196.17C52.8197 199.712 51.2215 201.685 48.0592 202.972C44.9291 204.245 41.6792 204.873 38.3869 205.252C33.6848 205.795 30.6872 203.24 30.6643 198.448C30.5689 178.491 30.6496 158.533 30.5614 138.576C30.5431 134.443 32.0198 132.453 36.4105 132.681C40.2102 132.879 44.0384 132.605 47.8507 132.456C50.4647 132.354 51.8882 133.266 51.9596 136.121C52.3033 149.872 54.039 163.652 51.1369 177.328C50.6396 179.672 53.4752 181.007 52.6379 183.765Z" fill="#51F72B"/>
<path d="M61.3149 131.178C61.3215 124.68 61.4327 118.68 61.2926 112.686C61.2144 109.344 62.3697 107.722 65.894 107.892C69.8837 108.085 73.888 107.956 77.8813 108.099C81.076 108.213 82.5522 109.829 82.5471 113.208C82.5199 131.367 82.5967 149.527 82.7347 167.686C82.7594 170.934 81.8314 172.549 78.2204 172.626C74.4183 172.707 70.6328 173.525 66.838 174.005C63.1891 174.466 61.2272 173.32 61.276 169.164C61.4225 156.67 61.3199 144.174 61.3149 131.178Z" fill="#51F72B"/>
<path d="M89.4865 67.278C89.4558 58.1539 89.4558 58.1538 97.8664 58.1225C110.75 58.0745 110.749 58.0745 110.763 71.0393C110.775 81.6857 110.828 92.3323 110.791 102.979C110.762 111.343 100.364 118.092 92.692 114.826C89.6434 113.529 89.4221 110.938 89.4265 108.185C89.4482 94.7107 89.4665 81.2364 89.4865 67.278Z" fill="#51F72B"/>
<path d="M51.0803 245.439C52.9693 246.107 53.3245 247.312 53.2198 248.749C52.5079 258.514 53.626 268.36 51.8718 278.086C51.3643 280.9 50.7207 283.665 49.1855 286.055C46.6272 290.037 43.0459 292.056 38.1706 290.862C33.2554 289.657 30.4743 286.372 30.4235 281.249C30.3232 271.115 30.476 260.978 30.3649 250.844C30.3261 247.3 31.6159 245.654 35.2908 245.698C40.4242 245.76 45.5769 246.148 51.0803 245.439Z" fill="#51F72B"/>
<path d="M31.2101 216.29C31.3661 208.973 31.3612 209.025 38.3349 209.682C41.6445 209.993 44.9796 210.024 48.298 210.255C51.471 210.476 53.2432 211.976 52.7441 215.417C51.9539 220.864 52.201 226.354 52.0108 231.829C51.7881 238.237 46.8741 242.586 40.574 242.435C34.9267 242.3 31.4004 238.294 31.2882 231.752C31.2026 226.76 31.2309 221.767 31.2101 216.29Z" fill="#51F72B"/>
<path d="M20.8319 175C22.7314 175.584 23.0887 176.637 22.9834 177.893C22.2675 186.428 23.3918 195.034 21.6278 203.535C21.1175 205.994 20.4703 208.412 18.9265 210.5C16.3539 213.981 12.7526 215.746 7.85017 214.701C2.90745 213.649 0.11081 210.778 0.0597904 206.3C-0.041112 197.442 0.11259 188.581 0.000854043 179.724C-0.038227 176.627 1.2588 175.188 4.95428 175.226C10.1163 175.28 15.2978 175.619 20.8319 175Z" fill="#51F72B" fill-opacity="0.8"/>
<path d="M81.8319 177C83.7314 177.584 84.0887 178.637 83.9834 179.893C83.2675 188.428 84.3918 197.034 82.6278 205.535C82.1175 207.994 81.4703 210.412 79.9265 212.5C77.3539 215.981 73.7526 217.746 68.8502 216.701C63.9075 215.649 61.1108 212.778 61.0598 208.3C60.9589 199.442 61.1126 190.581 61.0009 181.724C60.9618 178.627 62.2588 177.188 65.9543 177.226C71.1163 177.28 76.2978 177.619 81.8319 177Z" fill="#51F72B" fill-opacity="0.8"/>
<path d="M1 152.21C1.15157 146.672 1.14682 146.711 7.92138 147.208C11.1364 147.444 14.3762 147.467 17.5999 147.642C20.6822 147.81 22.4038 148.945 21.9189 151.549C21.1513 155.672 21.3914 159.827 21.2066 163.97C20.9903 168.82 16.2166 172.111 10.0965 171.997C4.61047 171.895 1.1849 168.863 1.07589 163.912C0.992722 160.134 1.02026 156.355 1 152.21Z" fill="#51F72B" fill-opacity="0.8"/>
<path d="M14.1131 111.462C19.662 112.403 21.7743 115.655 21.8856 120.661C21.9781 124.821 22.2998 128.976 22.4785 133.136C22.7541 139.55 21.112 141.916 15.7594 142.911C9.45214 144.085 3.40006 141.515 2.14959 136.527C0.683696 130.679 0.521921 124.611 2.23493 118.762C3.83172 113.31 7.06574 111.449 14.1131 111.462Z" fill="#51F72B"/>
<path d="M39.9049 97.1049C49.5658 97.7729 53.5179 102.203 52.9644 111.236C52.5381 118.193 46.4922 123.607 39.6551 123.155C33.2654 122.733 29.9556 119.266 28.7392 111.723C27.759 105.644 30.4271 100.488 35.7059 98.3687C36.9336 97.8758 38.2292 97.5524 39.9049 97.1049Z" fill="#51F72B"/>
<path d="M215.72 137.541C208.601 137.431 208.488 137.43 208.541 130.884C208.596 124.073 207.95 117.234 209.146 110.454C209.406 108.981 209.444 107.316 211.255 106.85C213.255 106.335 214.5 105.391 216.704 105C219.52 104.5 226.5 104.5 229 105C231 105.5 230.913 105.427 231 105.5C232 106 232 109.178 232 111C232 112.5 232 112.304 232 114C232 115 232 115 232 115C232 117 231.62 120.413 231.645 122.629C231.814 137.553 231.783 137.554 216.704 137.541C216.538 137.54 216.371 137.54 215.72 137.541Z" fill="#51F72B"/>
<path d="M89.4512 120.558C89.4284 118.157 90.384 116.992 92.2657 116.592C93.0725 116.421 93.8947 116.175 94.7052 116.192C99.9298 116.301 106.891 114.262 109.808 118.126C112.881 122.198 110.651 128.989 110.566 134.591C110.535 136.621 109.196 137.473 107.263 137.479C102.626 137.495 97.9896 137.477 93.3535 137.525C90.5376 137.554 89.5944 135.97 89.5781 133.439C89.5515 129.299 89.4935 125.159 89.4512 120.558Z" fill="#51F72B" fill-opacity="0.6"/>
<path d="M78.4135 102.129C69.5495 107.214 61.7387 103.746 61.3469 94.9393C61.1402 90.2914 62.2391 86.1738 66.9336 84.2284C71.2001 82.4604 75.5001 82.6746 79.0833 85.9376C82.1678 88.7465 82.8192 94.7661 80.7073 99.0164C80.1969 100.044 79.3897 100.924 78.4135 102.129Z" fill="#51F72B"/>
<path d="M29.8035 72.2267C26.7934 73.893 24.141 72.7567 24.008 69.8708C23.9378 68.3478 24.311 66.9986 25.9051 66.3611C27.3539 65.7817 28.8142 65.8519 30.031 66.9212C31.0784 67.8416 31.2996 69.8141 30.5824 71.2068C30.4091 71.5434 30.135 71.8317 29.8035 72.2267Z" fill="#51F72B"/>
<path d="M43.8035 87.2267C40.7934 88.893 38.141 87.7567 38.008 84.8708C37.9378 83.3478 38.311 81.9986 39.9051 81.3611C41.3539 80.7817 42.8142 80.8519 44.031 81.9212C45.0784 82.8416 45.2996 84.8141 44.5824 86.2068C44.4091 86.5434 44.135 86.8317 43.8035 87.2267Z" fill="#51F72B" fill-opacity="0.8"/>
<path d="M55.8035 61.2267C52.7934 62.893 50.141 61.7567 50.008 58.8708C49.9378 57.3478 50.311 55.9986 51.9051 55.3611C53.3539 54.7817 54.8142 54.8519 56.031 55.9212C57.0784 56.8416 57.2996 58.8141 56.5824 60.2068C56.4091 60.5434 56.135 60.8317 55.8035 61.2267Z" fill="#51F72B"/>
<path d="M76.8035 72.2267C73.7934 73.893 71.141 72.7567 71.008 69.8708C70.9378 68.3478 71.311 66.9986 72.9051 66.3611C74.3539 65.7817 75.8142 65.8519 77.031 66.9212C78.0784 67.8416 78.2996 69.8141 77.5824 71.2068C77.4091 71.5434 77.135 71.8317 76.8035 72.2267Z" fill="#51F72B"/>
<path d="M79.8035 51.2267C76.7934 52.893 74.141 51.7567 74.008 48.8708C73.9378 47.3478 74.311 45.9986 75.9051 45.3611C77.3539 44.7817 78.8142 44.8519 80.031 45.9212C81.0784 46.8416 81.2996 48.8141 80.5824 50.2068C80.4091 50.5434 80.135 50.8317 79.8035 51.2267Z" fill="#51F72B"/>
<path d="M60.8035 39.2267C57.7934 40.893 55.141 39.7567 55.008 36.8708C54.9378 35.3478 55.311 33.9986 56.9051 33.3611C58.3539 32.7817 59.8142 32.8519 61.031 33.9212C62.0784 34.8416 62.2996 36.8141 61.5824 38.2068C61.4091 38.5434 61.135 38.8317 60.8035 39.2267Z" fill="#51F72B" fill-opacity="0.8"/>
<path d="M82.8035 29.2267C79.7934 30.893 77.141 29.7567 77.008 26.8708C76.9378 25.3478 77.311 23.9986 78.9051 23.3611C80.3539 22.7817 81.8142 22.8519 83.031 23.9212C84.0784 24.8416 84.2996 26.8141 83.5824 28.2068C83.4091 28.5434 83.135 28.8317 82.8035 29.2267Z" fill="#51F72B"/>
<path d="M98.8035 42.2267C95.7934 43.893 93.141 42.7567 93.008 39.8708C92.9378 38.3478 93.311 36.9986 94.9051 36.3611C96.3539 35.7817 97.8142 35.8519 99.031 36.9212C100.078 37.8416 100.3 39.8141 99.5824 41.2068C99.4091 41.5434 99.135 41.8317 98.8035 42.2267Z" fill="#51F72B" fill-opacity="0.8"/>
<path d="M102.803 21.2267C99.7934 22.893 97.141 21.7567 97.008 18.8708C96.9378 17.3478 97.311 15.9986 98.9051 15.3611C100.354 14.7817 101.814 14.8519 103.031 15.9212C104.078 16.8416 104.3 18.8141 103.582 20.2068C103.409 20.5434 103.135 20.8317 102.803 21.2267Z" fill="#51F72B"/>
<path d="M5.8035 85.2267C2.79342 86.893 0.141008 85.7567 0.00798484 82.8708C-0.0622103 81.3478 0.310954 79.9986 1.90513 79.3611C3.35395 78.7817 4.81415 78.8519 6.03096 79.9212C7.0784 80.8416 7.2996 82.8141 6.58245 84.2068C6.4091 84.5434 6.13499 84.8317 5.8035 85.2267Z" fill="#51F72B"/>
<path d="M16.8035 100.227C13.7934 101.893 11.141 100.757 11.008 97.8708C10.9378 96.3478 11.311 94.9986 12.9051 94.3611C14.3539 93.7817 15.8142 93.8519 17.031 94.9212C18.0784 95.8416 18.2996 97.8141 17.5824 99.2068C17.4091 99.5434 17.135 99.8317 16.8035 100.227Z" fill="#51F72B"/>
<path d="M139.161 8.91068C139.759 16.342 136.027 21.5196 129.869 22.3126C125.232 22.9098 119.802 19.0076 118.675 14.2682C117.133 7.78431 119.801 1.88889 124.968 0.359227C130.253 -1.20514 136.589 2.46634 139.161 8.91068Z" fill="#51F72B"/>
</g>
<defs>
<clipPath id="clip0_1_54">
<rect width="745" height="295" fill="white"/>
</clipPath>
</defs>
</svg>
